<svg width="132" height="48" viewBox="0 0 132 48" fill="none" xmlns="http://www.w3.org/2000/svg">
<g clip-path="url(#clip0_1422_85013)">
<mask id="mask0_1422_85013" style="mask-type:luminance" maskUnits="userSpaceOnUse" x="10" y="15" width="111" height="19">
<path d="M121 15H10V33.1967H121V15Z" fill="white"/>
</mask>
<g mask="url(#mask0_1422_85013)">
<path d="M104.926 32.7692H104.016C103.834 32.7692 103.652 32.5872 103.652 32.4053V16.1495C103.652 15.9676 103.652 15.7856 103.834 15.7249C104.016 15.6036 104.441 15.6036 104.744 15.6036H105.836C107.231 15.6036 108.384 16.7561 108.384 18.1512V24.338L112.266 20.3954C113.054 19.6676 115.844 16.8167 115.844 16.8167C116.511 16.0889 117.482 15.6036 118.634 15.6036H119.302C119.787 15.6036 120.151 15.7249 120.393 16.0889C120.454 16.2102 120.636 16.3921 120.697 16.6348C120.757 16.938 120.757 17.2413 120.757 17.2413C120.757 18.0299 120.454 18.7577 119.908 19.3643L115.662 23.6708C114.51 24.7626 115.48 25.9151 115.48 25.9151C115.966 26.4003 116.936 27.0676 117.785 27.3708L118.816 27.7954C120.03 28.3413 120.757 29.4938 120.757 30.7069V32.4659C120.757 32.7085 120.636 32.8905 120.393 32.8905H119.666C118.695 32.8905 117.543 32.3446 117.543 32.3446L112.751 30.343C112.266 30.1003 111.72 29.9184 111.113 29.8577C110.931 29.7971 110.749 29.7971 110.567 29.7971H110.203C109.657 29.8577 109.172 30.1003 108.808 30.4643L107.716 31.5561C107.049 32.2233 106.079 32.7692 104.926 32.7692ZM84.6672 30.7069C84.7885 30.7676 84.9098 30.9495 85.1525 31.1315V32.3446C85.1525 32.6479 84.9705 32.8299 84.7279 32.8299H80.9672C80.3607 32.8299 79.7541 32.6479 79.2082 32.2233L73.5066 27.7348C73.1426 27.4315 72.9 26.8249 72.9 26.2184V24.3987C72.9 24.0954 73.0213 23.9135 73.2033 23.9135C73.3852 23.9135 73.6885 24.0348 73.8098 24.0954C74.1131 24.1561 74.4771 24.2774 74.4771 24.2774C75.023 24.4594 75.6295 24.5807 76.1754 24.5807C77.3885 24.5807 78.2984 24.0954 78.6016 23.2462C78.8443 22.4577 78.1164 20.6987 75.5082 20.0315C73.5066 19.5462 71.7475 19.9102 71.2016 20.8807C71.2016 20.8807 71.141 21.002 71.0803 21.184C71.0197 21.3659 71.0197 21.5479 71.0197 21.6692V28.7053C71.0197 29.7971 70.8377 30.7676 70.1705 31.6167C69.8066 32.102 69.3213 32.5266 68.7148 32.7085C68.2902 32.8299 67.8656 32.8905 67.5016 32.8905C67.1984 32.8905 66.7738 32.8905 66.5311 32.7692C66.3492 32.7085 66.3492 32.5266 66.3492 32.3446V16.0282C66.3492 15.8462 66.5311 15.6643 66.7131 15.6643H73.6279C74.7803 15.6643 75.9328 15.9069 77.0852 16.2708C78.2984 16.6348 79.3295 17.1807 80.3 17.8479C81.2705 18.5151 81.9984 19.3036 82.6049 20.2135C83.2115 21.1233 83.5148 22.0938 83.5148 23.1249C83.5148 24.2167 83.1508 25.0659 82.5443 25.7938C81.5131 26.8856 80.4213 27.3708 80.118 27.5528C80.3607 27.7954 81.0885 28.3413 81.9984 29.0692C83.7574 30.4643 84.6672 30.7069 84.6672 30.7069ZM61.982 28.3413C62.8311 28.3413 63.4984 28.584 63.9836 29.1905C64.4689 29.6758 64.7115 30.2823 64.7115 31.1315V32.5872C64.7115 32.7692 64.5295 32.9512 64.3475 32.9512H57.2508C55.9164 32.9512 54.6426 32.7085 53.4902 32.1626C52.277 31.6167 51.2459 30.9495 50.3967 30.0397C49.5475 29.1299 48.8197 28.0987 48.3344 26.9462C47.7885 25.7331 47.5459 24.52 47.5459 23.1856V16.0889C47.5459 15.9069 47.7279 15.7249 47.9098 15.7249H55.0066C56.2803 15.7249 57.5541 15.9676 58.7066 16.5135C59.859 16.9987 60.8902 17.7266 61.8 18.5758C62.7098 19.4249 63.377 20.3954 63.923 21.4266C64.4689 22.4577 64.7115 23.4282 64.7115 24.3987C64.7115 25.0053 64.5902 25.4299 64.2869 25.8544C63.9836 26.279 63.377 26.5217 62.5279 26.5217H57.6754C55.6131 26.5217 54.582 25.0053 54.4 24.5807C54.1574 24.1561 54.0967 23.7921 54.0967 23.2462C54.0967 22.943 54.2787 22.8217 54.582 22.8217H59.7984C59.1918 22.0938 58.4033 21.3659 57.6148 20.8807C57.0689 20.5774 56.523 20.3348 55.9771 20.2135C55.6738 20.1528 55.3705 20.0921 55.0066 20.0921C54.6426 20.0921 54.3393 20.1528 54.0361 20.2135C53.8541 20.2135 53.5508 20.3348 53.3082 20.4561C53.0656 20.5774 52.823 20.7594 52.7623 20.82C52.2164 21.3053 51.9738 21.9725 51.9738 22.8823C51.9738 23.6102 52.0951 24.2774 52.3377 24.9446C52.641 25.6118 52.9443 26.2184 53.4295 26.7036C53.6721 26.9462 54.4607 27.6741 55.0066 27.9167C55.6738 28.1594 56.2803 28.3413 57.0082 28.3413H61.982ZM45.9082 18.1512V32.284C45.9082 32.5266 45.7262 32.7692 45.423 32.7692H43.7852C42.3902 32.7692 41.2377 31.6167 41.2377 30.2217V27.1889C41.2377 25.9151 40.1459 24.8233 38.8721 24.8233C36.4459 24.8233 34.7475 26.8856 33.1705 28.2807C31.2295 29.979 29.7738 31.6167 27.9541 31.6167C26.1344 31.6167 24.6787 29.979 22.7377 28.2807C21.1607 26.8856 19.4623 24.8233 17.0361 24.8233C15.7623 24.8233 14.6705 25.9151 14.6705 27.2495V32.284C14.6705 32.5266 14.4885 32.7692 14.1852 32.7692H12.5475C11.1525 32.7692 10 31.6167 10 30.2217V16.0889C10 15.8462 10.2426 15.6036 10.4852 15.543H13.7C14.8525 15.543 15.9443 16.0282 16.6721 16.7561C16.7328 16.8167 20.6754 20.5167 20.6754 20.5167C22.5557 22.3971 25.1033 23.4282 27.9541 23.4282C30.6836 23.4282 33.1705 22.4577 34.9902 20.7594L40.3279 15.7249C40.4492 15.6643 40.5705 15.6036 40.6918 15.6036H43.3607C44.7557 15.6036 45.9082 16.7561 45.9082 18.1512ZM101.772 25.6118C102.015 25.6118 102.136 25.7331 101.954 26.0971C101.893 27.0676 101.651 28.038 101.287 28.8872C100.923 29.7971 100.438 30.5249 99.7705 31.1315C99.1639 31.738 98.3754 32.2233 97.5262 32.5872C96.6164 32.9512 95.7066 33.1331 94.6754 33.1331C93.4016 33.1331 92.1885 32.8299 90.9754 32.284C89.8229 31.738 88.7311 31.0102 87.8213 30.1003C86.9115 29.1299 86.1836 28.0987 85.6377 26.8856C85.0918 25.6725 84.8492 24.3987 84.8492 23.0643V16.0889C84.8492 15.7856 85.0311 15.6036 85.2738 15.6036H92.2492C93.523 15.6036 94.6754 15.8462 95.8279 16.3315C96.9803 16.8167 98.0115 17.5446 98.982 18.3938C99.1033 18.5151 99.1639 18.6364 99.2246 18.6971C99.2246 18.8184 99.2246 18.879 99.1033 19.0003L97.3443 20.7594C96.9197 21.184 96.4951 21.4266 96.0705 21.4266C95.6459 21.4266 95.282 21.2446 94.918 21.002C94.0689 20.3348 93.2197 20.0315 92.3098 20.0315C91.5213 20.0315 90.8541 20.2741 90.3689 20.82C89.8229 21.3659 89.5803 22.0331 89.5803 22.8823C89.5803 23.5495 89.7623 24.2167 90.0656 24.884C90.3689 25.5512 90.7934 26.1577 91.2787 26.7036C91.7639 27.2495 92.3705 27.6741 92.977 28.038C93.5836 28.402 94.1902 28.584 94.7967 28.584C95.4639 28.584 95.9492 28.402 96.3738 28.0987C96.7984 27.7954 97.1016 27.3708 97.2836 26.8249C97.5869 26.0364 98.1934 25.6118 99.1639 25.6118H101.772Z" fill="#0D0F2C"/>
</g>
</g>
<defs>
<clipPath id="clip0_1422_85013">
<rect width="111" height="18.1967" fill="white" transform="translate(10 14.9023)"/>
</clipPath>
</defs>
</svg>
