<svg width="102" height="23" viewBox="0 0 102 23" fill="none" xmlns="http://www.w3.org/2000/svg">
<mask id="mask0_270_25" style="mask-type:luminance" maskUnits="userSpaceOnUse" x="0" y="0" width="102" height="23">
<path d="M101.2 0H0V23H101.2V0Z" fill="white"/>
</mask>
<g mask="url(#mask0_270_25)">
<mask id="mask1_270_25" style="mask-type:luminance" maskUnits="userSpaceOnUse" x="0" y="0" width="102" height="23">
<path d="M101.156 0H0V23H101.156V0Z" fill="white"/>
</mask>
<g mask="url(#mask1_270_25)">
<path d="M21.2136 22.6651H3.1277C1.85884 22.6651 0.72504 21.9075 0.23952 20.7352C-0.24612 19.5628 0.0200138 18.2254 0.917321 17.3283L13.4447 4.80098H4.46607C1.99956 4.80098 1.44651e-05 2.80143 1.44651e-05 0.334924H16.6791C17.948 0.334924 19.0817 1.09236 19.5673 2.26459C20.0529 3.43695 19.7872 4.77411 18.8899 5.67166L6.36249 18.199H16.7475C19.2141 18.199 21.2136 20.1986 21.2136 22.6651ZM101.156 8.70875C101.156 3.90668 97.2485 0 92.4463 0C89.8781 0 87.5663 1.1185 85.971 2.89324C84.3756 1.1185 82.0638 0 79.4952 0C74.6932 0 70.7866 3.90668 70.7866 8.70875V22.6651C73.2531 22.6651 75.2527 20.6655 75.2527 18.199V8.70875C75.2527 6.36934 77.1559 4.46606 79.4952 4.46606C81.8346 4.46606 83.7379 6.36934 83.7379 8.70875V18.199C83.7379 20.6655 85.7375 22.6651 88.204 22.6651V8.70875C88.204 6.36934 90.1073 4.46606 92.4463 4.46606C94.786 4.46606 96.6895 6.36934 96.6895 8.70875V18.199C96.6895 20.6655 98.6894 22.6651 101.156 22.6651V8.70875ZM68.5536 11.5001C68.5536 17.8513 63.4048 23 57.0536 23C50.7021 23 45.5536 17.8513 45.5536 11.5001C45.5536 5.14867 50.7021 0 57.0536 0C63.4048 0 68.5536 5.14867 68.5536 11.5001ZM64.0875 11.5001C64.0875 7.6153 60.9383 4.46606 57.0536 4.46606C53.1686 4.46606 50.0196 7.6153 50.0196 11.5001C50.0196 15.3848 53.1686 18.5339 57.0536 18.5339C60.9383 18.5339 64.0875 15.3848 64.0875 11.5001ZM43.767 11.5001C43.767 17.8513 38.6182 23 32.2671 23C25.9158 23 20.767 17.8513 20.767 11.5001C20.767 5.14867 25.9158 0 32.2671 0C38.6182 0 43.767 5.14867 43.767 11.5001ZM39.3011 11.5001C39.3011 7.6153 36.1517 4.46606 32.2671 4.46606C28.3823 4.46606 25.2331 7.6153 25.2331 11.5001C25.2331 15.3848 28.3823 18.5339 32.2671 18.5339C36.1517 18.5339 39.3011 15.3848 39.3011 11.5001Z" fill="#0D0F2C"/>
</g>
</g>
</svg>
