<svg width="122" height="30" viewBox="0 0 122 30" fill="none" xmlns="http://www.w3.org/2000/svg">
<path d="M13.0124 19.37C12.4473 19.8857 11.6278 20.0552 11.1192 20.1188C10.0808 20.246 8.99993 19.8998 8.31469 19.0733C7.74955 18.3951 7.45991 17.5192 6.9089 16.8198C6.03999 15.7107 4.64833 14.9831 3.21428 15.2445C0.381497 15.7602 -0.904203 19.0592 0.69939 21.355C2.98822 24.6329 8.13809 24.0606 10.7801 21.793C11.5996 21.0795 12.3625 20.2954 13.0124 19.37Z" fill="#0D0F2C"/>
<path d="M108.988 19.3641C109.553 19.8798 110.365 20.0494 110.881 20.1129C111.919 20.2472 113 19.901 113.685 19.0674C114.25 18.3893 114.54 17.5133 115.091 16.8139C115.96 15.7048 117.352 14.9772 118.786 15.2386C121.618 15.7543 122.904 19.0533 121.301 21.3492C119.012 24.6199 113.862 24.0548 111.227 21.7872C110.4 21.0807 109.63 20.2966 108.988 19.3641Z" fill="#0D0F2C"/>
<path d="M99.5571 1.90125C99.4864 1.90125 92.7259 1.90125 92.6623 1.90125C91.9206 1.92244 91.306 2.60767 91.2707 3.31409C91.2353 4.0629 91.8853 4.80465 92.6623 4.84704C92.733 4.84704 99.4935 4.84704 99.5571 4.84704C100.299 4.82584 100.913 4.14061 100.949 3.43419C100.984 2.68538 100.334 1.94363 99.5571 1.90125Z" fill="#0D0F2C"/>
<path d="M56.5007 16.5944C56.4089 16.2058 56.3594 15.8173 56.3312 15.4288C56.3241 14.8707 56.3241 14.0795 56.3241 13.359C56.3948 10.8582 56.861 6.45719 53.4702 6.45719C51.1813 6.45719 49.8179 8.38573 49.4364 9.01445C49.3799 7.25545 47.9953 5.98389 45.876 5.98389C44.5268 5.98389 43.7214 7.05765 43.7214 7.05765C43.7214 7.05765 45.0425 7.51683 45.0425 9.28289C45.0566 10.5545 45.0425 16.7286 45.0425 16.7498C45.0919 17.8448 45.8619 18.8691 47.2253 18.8691C48.5958 18.8691 49.4435 17.8165 49.4435 16.7498V11.275C49.6342 10.3778 50.1358 9.46656 50.8987 9.46656C51.8807 9.46656 51.9372 10.5615 51.9443 10.5615L51.9372 15.8668C51.9443 16.0363 51.9655 16.2058 51.9937 16.3683C52.0432 16.6438 52.1279 16.9052 52.248 17.1383C52.7708 18.205 53.9364 18.9044 55.4976 18.9044C56.8469 18.9044 57.6522 17.8306 57.6522 17.8306C57.6522 17.8306 56.8539 17.5481 56.5007 16.5944Z" fill="#0D0F2C"/>
<path d="M89.1086 16.5939C89.0097 16.2054 88.9603 15.8168 88.9391 15.4283L88.9462 2.31001C88.9462 1.03138 87.9148 0 86.6361 0C85.3575 0 84.3261 1.03138 84.3261 2.31001V13.9307C84.3402 14.9762 84.2343 16.05 84.7288 17.0107C85.2515 18.0774 86.5443 18.9039 88.1055 18.9039C89.4618 18.9039 90.2601 17.8302 90.2601 17.8302C90.2601 17.8302 89.4689 17.5476 89.1086 16.5939Z" fill="#0D0F2C"/>
<path d="M37.518 16.2336C37.5109 16.2336 37.5109 16.2336 37.5038 16.2336C37.4968 16.2336 37.4968 16.2336 37.4897 16.2336C36.3029 16.2124 35.7095 14.849 35.7095 12.6237C35.7095 10.3985 36.4654 9.03511 37.4897 9.01391C37.4968 9.01391 37.4968 9.01391 37.5038 9.01391C37.5109 9.01391 37.5109 9.01391 37.518 9.01391C38.5423 9.03511 39.2982 10.4056 39.2982 12.6237C39.2982 14.849 38.7048 16.2124 37.518 16.2336ZM37.4756 6.34363C34.007 6.34363 31.1954 9.1552 31.1954 12.6237C31.1954 16.0923 34.007 18.9039 37.4756 18.9039C40.9442 18.9039 43.7557 16.0923 43.7557 12.6237C43.7557 9.1552 40.9442 6.34363 37.4756 6.34363Z" fill="#0D0F2C"/>
<path d="M63.7341 15.831C63.727 15.831 63.727 15.831 63.72 15.831C63.7129 15.831 63.7129 15.831 63.7058 15.831C62.519 15.8168 61.9256 14.623 61.9256 12.6874C61.9256 10.7518 62.6745 9.56499 63.7058 9.53673C63.7129 9.53673 63.7129 9.53673 63.72 9.53673C63.727 9.53673 63.727 9.53673 63.7341 9.53673C64.7655 9.55793 65.5143 10.7447 65.5143 12.6874C65.5143 14.623 64.9209 15.8098 63.7341 15.831ZM70.6218 16.5939C70.5229 16.2054 70.4734 15.8168 70.4522 15.4283V2.31001C70.4522 1.03138 69.4209 0 68.1422 0C66.8636 0 65.8322 1.03138 65.8322 2.31001L65.8251 8.52655C65.2671 7.74948 64.0449 6.44259 62.1164 6.44259C56.8111 6.44259 56.472 15.8946 60.1101 18.2328C61.1344 18.8898 62.6815 19.0593 63.8542 18.7556C64.6595 18.5436 65.9382 17.7525 66.143 16.7988C66.1713 16.8694 66.2066 16.9401 66.2419 17.0036C66.7647 18.0703 68.0575 18.8969 69.6187 18.8969C70.975 18.8969 71.7733 17.8231 71.7733 17.8231C71.7733 17.8231 70.975 17.5476 70.6218 16.5939Z" fill="#0D0F2C"/>
<path d="M75.8993 11.911C76.0336 10.922 76.2737 9.67166 77.1638 9.09239C77.9056 8.61202 78.937 9.15597 78.9582 10.0814C78.9723 11.0562 78.3436 11.7274 77.4605 11.911C77.3616 11.9322 75.8852 12.0029 75.8993 11.911ZM82.6457 15.0122C82.6457 15.0122 81.9676 15.9376 79.3396 15.9376C76.7117 15.9376 76.1466 13.8961 76.1466 13.8961C79.9754 13.8961 83.1897 13.6418 83.1897 10.5406C83.1897 7.43935 79.6858 6.41504 77.6018 6.41504C74.1686 6.41504 71.6608 9.1489 71.6608 12.7658C71.6608 16.8348 74.9245 18.8976 77.6372 18.8976C82.4126 18.8976 82.6457 15.0122 82.6457 15.0122Z" fill="#0D0F2C"/>
<path d="M94.3786 11.911C94.5128 10.922 94.753 9.67166 95.6431 9.09239C96.3849 8.61202 97.4163 9.15597 97.4375 10.0814C97.4516 11.0562 96.8229 11.7274 95.9398 11.911C95.848 11.9322 94.3715 12.0029 94.3786 11.911ZM101.132 15.0122C101.132 15.0122 100.454 15.9376 97.826 15.9376C95.1981 15.9376 94.6329 13.8961 94.6329 13.8961C98.4618 13.8961 101.676 13.6418 101.676 10.5406C101.676 7.43935 98.1721 6.41504 96.0882 6.41504C92.6549 6.41504 90.1471 9.1489 90.1471 12.7658C90.1471 16.8348 93.4108 18.8976 96.1235 18.8976C100.899 18.8976 101.132 15.0122 101.132 15.0122Z" fill="#0D0F2C"/>
<path d="M109.8 15.3511H107.165C107.356 15.3511 109.306 13.7122 109.956 13.1612C111.644 11.7271 114.689 9.6573 113.799 6.97288V6.99407C113.636 6.35829 113.142 5.98389 113.142 5.98389C113.142 5.98389 112.958 6.50664 112.329 6.73976C112.075 6.80334 111.821 6.84572 111.566 6.85985C111.354 6.86692 104.205 6.85985 104.205 6.85985C103.238 6.85985 102.425 7.63692 102.418 8.55527C102.404 9.48069 103.174 10.2224 104.149 10.2366L108.317 10.2648C106.381 11.3457 104.078 12.6172 102.906 14.5669C102.234 15.6831 101.521 17.4138 101.789 18.7349C102.715 17.9154 105.145 17.1171 106.996 17.5057C107.688 17.647 108.423 18.0072 109.023 18.3816C112.492 20.5504 114.583 16.3048 112.923 14.4327C112.937 14.4257 111.99 15.3511 109.8 15.3511Z" fill="#0D0F2C"/>
<path d="M31.5349 17.9938C29.4086 15.6555 28.7375 11.7772 28.6103 9.19879C28.4973 6.96649 28.6174 3.10941 30.3764 1.9862C29.7901 1.24445 28.6315 0.947754 27.7485 0.947754C25.7705 0.947754 24.8097 2.26877 24.1386 3.21538C23.9126 3.5262 20.5853 8.12503 20.5853 8.12503C20.5853 8.12503 17.7808 3.78758 17.4417 3.27189C16.9684 2.55134 16.0783 1.23033 14.51 1.00427C13.8389 0.90537 12.087 0.813534 11.1333 2.12042C12.7722 3.43437 12.7369 6.77576 12.3766 9.06457C11.3099 15.9169 8.39233 16.5527 8.39233 16.5527C9.8829 20.5864 13.7329 18.9898 14.8208 15.7756C15.5273 13.6846 15.9794 11.0355 16.0853 8.84558L20.3098 15.3235C20.3098 15.3235 25.0923 8.86677 25.0923 8.87384C24.3082 20.2897 28.2288 23.5251 31.655 23.5251C35.0883 23.5251 36.2539 20.3886 36.2539 20.3886C34.3818 20.2614 32.7571 19.3289 31.5349 17.9938Z" fill="#0D0F2C"/>
<path d="M42.2446 21.7008C42.287 21.8703 42.3082 22.0328 42.3152 22.2024C42.3152 22.2518 42.3152 28.1787 42.3152 28.2494C42.3294 28.7439 42.7886 29.1606 43.2619 29.1818C43.7634 29.2101 44.265 28.7721 44.2862 28.2494C44.2862 28.1787 44.2862 22.8452 44.2862 22.8452C44.2791 22.4002 44.3286 21.941 44.1166 21.5313C43.8906 21.0721 43.3396 20.7189 42.6685 20.7189C42.0892 20.7189 41.743 21.178 41.743 21.178C41.743 21.178 42.0963 21.2981 42.2446 21.7008Z" fill="#0D0F2C"/>
<path d="M104.862 28.193C104.82 28.0235 104.798 27.861 104.791 27.6915C104.791 27.642 104.791 21.7222 104.791 21.6515C104.777 21.1571 104.318 20.7403 103.845 20.7191C103.343 20.6908 102.842 21.1288 102.82 21.6515C102.82 21.7222 102.82 27.0557 102.82 27.0557C102.827 27.5007 102.785 27.9599 102.99 28.3696C103.216 28.8288 103.767 29.182 104.438 29.182C105.017 29.182 105.364 28.7229 105.364 28.7229C105.364 28.7229 105.017 28.6028 104.862 28.193Z" fill="#0D0F2C"/>
<path d="M69.1236 23.7841C68.0993 23.7841 67.4918 24.646 67.3152 24.9285L67.3081 24.9356C67.3081 24.653 67.3081 24.427 67.3081 24.4129C67.294 23.9184 66.8348 23.544 66.3615 23.5228C65.8599 23.4945 65.3584 23.8972 65.3372 24.4129C65.3372 24.4835 65.3372 28.1922 65.3372 28.2417C65.3513 28.7362 65.8105 29.1459 66.2838 29.1742C66.7853 29.2024 67.2869 28.7644 67.3081 28.2417C67.3081 28.2064 67.3081 26.9913 67.3081 25.9458L67.3152 25.9387C67.3999 25.5361 67.626 25.1263 67.9651 25.1263C68.4031 25.1263 68.4313 25.6208 68.4313 25.6208L68.4242 28.2417C68.4384 28.7362 68.8976 29.1459 69.3709 29.1742C69.8724 29.2024 70.374 28.7644 70.3952 28.2417V26.8712C70.4023 25.4654 70.5506 23.7771 69.1236 23.7841Z" fill="#0D0F2C"/>
<path d="M94.3646 23.7841C93.3403 23.7841 92.7327 24.646 92.5561 24.9285L92.5491 24.9356C92.5491 24.653 92.5491 24.427 92.5491 24.4129C92.5349 23.9184 92.0758 23.544 91.6024 23.5228C91.1009 23.4945 90.5993 23.8972 90.5781 24.4129C90.5781 24.4835 90.5781 28.1922 90.5781 28.2417C90.5923 28.7362 91.0514 29.1459 91.5247 29.1742C92.0263 29.2024 92.5279 28.7644 92.5491 28.2417C92.5491 28.2064 92.5491 26.9913 92.5491 25.9458L92.5561 25.9387C92.6409 25.5361 92.867 25.1263 93.206 25.1263C93.644 25.1263 93.6723 25.6208 93.6723 25.6208L93.6652 28.2417C93.6794 28.7362 94.1385 29.1459 94.6118 29.1742C95.1134 29.2024 95.615 28.7644 95.6362 28.2417V26.8712C95.6503 25.4654 95.7986 23.7771 94.3646 23.7841Z" fill="#0D0F2C"/>
<path d="M49.0684 23.7841C48.0441 23.7841 47.4366 24.646 47.26 24.9285L47.2529 24.9356C47.2529 24.653 47.2529 24.427 47.2529 24.4129C47.2388 23.9184 46.7796 23.544 46.3063 23.5228C45.8047 23.4945 45.3032 23.8972 45.282 24.4129C45.282 24.4835 45.282 28.1922 45.282 28.2417C45.2961 28.7362 45.7553 29.1459 46.2286 29.1742C46.7302 29.2024 47.2317 28.7644 47.2529 28.2417C47.2529 28.2064 47.2529 26.9913 47.2529 25.9458L47.26 25.9387C47.3448 25.5361 47.5708 25.1263 47.9099 25.1263C48.3479 25.1263 48.3761 25.6208 48.3761 25.6208L48.3691 28.2417C48.3832 28.7362 48.8424 29.1459 49.3157 29.1742C49.8173 29.2024 50.3188 28.7644 50.34 28.2417V26.8712C50.3541 25.4654 50.5025 23.7771 49.0684 23.7841Z" fill="#0D0F2C"/>
<path d="M87.2298 27.9686C87.2227 27.9686 87.2156 27.9686 87.2156 27.9686C86.6858 27.9615 86.4174 27.3469 86.4174 26.3509C86.4174 25.3548 86.7564 24.7402 87.2156 24.7332C87.2156 24.7332 87.2156 24.7332 87.2227 24.7332H87.2298C87.6889 24.7473 88.028 25.3548 88.028 26.3509C88.028 27.3469 87.7596 27.9615 87.2298 27.9686ZM87.2086 23.5393C85.6544 23.5393 84.397 24.7967 84.397 26.3509C84.397 27.905 85.6544 29.1624 87.2086 29.1624C88.7627 29.1624 90.0202 27.905 90.0202 26.3509C90.0202 24.7967 88.7627 23.5393 87.2086 23.5393Z" fill="#0D0F2C"/>
<path d="M73.6872 27.7552C73.6801 27.7552 73.6801 27.7552 73.673 27.7552C73.1432 27.7481 72.8748 27.2113 72.8748 26.3423C72.8748 25.4734 73.2138 24.9436 73.673 24.9295H73.6801H73.6872C74.1463 24.9366 74.4854 25.4734 74.4854 26.3423C74.4854 27.2113 74.217 27.7411 73.6872 27.7552ZM76.7036 24.3432C76.6895 23.8204 76.195 23.3895 75.7005 23.3683C75.1707 23.34 74.655 23.7992 74.6267 24.3432C74.6267 24.3785 74.6196 24.4633 74.6196 24.4774C74.3724 24.1312 73.8214 23.5449 72.9595 23.5449C70.5789 23.5449 70.4305 27.7764 72.0624 28.829C72.5215 29.1257 73.2138 29.1963 73.7437 29.0621C74.0404 28.9844 74.4784 28.7301 74.6762 28.4122C74.7962 28.829 75.213 29.1469 75.6298 29.168C76.1597 29.1963 76.6754 28.7371 76.7036 28.1932C76.7036 28.1155 76.7036 24.3926 76.7036 24.3432Z" fill="#0D0F2C"/>
<path d="M98.914 27.7552C98.9069 27.7552 98.9069 27.7552 98.914 27.7552C98.9069 27.7552 98.9069 27.7552 98.8998 27.7552C98.37 27.7481 98.1016 27.2113 98.1016 26.3423C98.1016 25.4734 98.4407 24.9436 98.8998 24.9295H98.9069C98.9069 24.9295 98.9069 24.9295 98.914 24.9295C99.3731 24.9366 99.7122 25.4734 99.7122 26.3423C99.7122 27.2113 99.4438 27.7411 98.914 27.7552ZM101.93 24.3432C101.916 23.8204 101.422 23.3895 100.927 23.3683C100.397 23.34 99.8818 23.7992 99.8535 24.3432C99.8535 24.3785 99.8464 24.4633 99.8464 24.4774C99.5992 24.1312 99.0482 23.5449 98.1863 23.5449C95.8057 23.5449 95.6573 27.7764 97.2892 28.829C97.7484 29.1257 98.4407 29.1963 98.9634 29.0621C99.2601 28.9844 99.6981 28.7301 99.8959 28.4122C100.016 28.829 100.433 29.1469 100.85 29.168C101.379 29.1963 101.895 28.7371 101.923 28.1932C101.93 28.1155 101.93 24.3926 101.93 24.3432Z" fill="#0D0F2C"/>
<path d="M83.7755 24.873C83.7543 24.3856 83.3658 23.9971 82.8783 23.9547C82.8501 23.9547 82.8218 23.9476 82.7935 23.9476C82.3556 23.9476 81.7975 24.3291 81.7975 24.8095V26.632C81.8045 27.1972 81.7975 28.2286 81.7975 28.2356C81.8187 28.7231 82.2072 29.1116 82.6946 29.154C82.7229 29.154 82.7512 29.161 82.7794 29.161C83.2174 29.161 83.7755 28.7796 83.7755 28.2992V26.7804C83.7684 26.2082 83.7755 24.8872 83.7755 24.873Z" fill="#0D0F2C"/>
<path d="M83.7686 22.4145C83.7686 22.9514 83.3306 23.3894 82.7866 23.3894C82.2427 23.3894 81.8047 22.9514 81.8047 22.4145C81.8047 21.8706 82.2427 21.4326 82.7866 21.4326C83.3306 21.4326 83.7686 21.8706 83.7686 22.4145Z" fill="#0D0F2C"/>
<path d="M63.7629 23.7147C63.1765 23.7359 62.8869 24.1739 62.4842 24.7249C62.4842 24.732 62.4842 24.4706 62.4842 24.4636C62.4701 23.9691 62.0109 23.5593 61.5376 23.5311C61.0361 23.5028 60.5345 23.9408 60.5133 24.4636V25.8835V28.2571C60.5274 28.7516 60.9866 29.1683 61.4599 29.1895C61.9615 29.2107 62.4489 28.7869 62.4842 28.2712H62.4913V25.8693C62.5196 25.5161 62.675 25.0782 62.9576 25.0782C63.3602 25.0782 62.9434 26.053 63.8618 26.053C65.1828 26.053 65.317 23.6512 63.7629 23.7147Z" fill="#0D0F2C"/>
<path d="M56.7051 26.0247C56.7687 25.5797 56.8746 25.0216 57.2702 24.7602C57.6023 24.5483 58.0685 24.7885 58.0756 25.2053C58.0826 25.6433 57.8001 25.94 57.4045 26.0247C57.3621 26.0389 56.698 26.0671 56.7051 26.0247ZM59.7357 27.4164C59.7357 27.4164 59.4319 27.8332 58.2522 27.8332C57.0724 27.8332 56.8181 26.9148 56.8181 26.9148C58.5348 26.9148 59.9759 26.8018 59.9759 25.4102C59.9759 24.0185 58.4005 23.5593 57.468 23.5593C55.928 23.5593 54.8048 24.7885 54.8048 26.4062C54.8048 28.2288 56.2671 29.1542 57.4892 29.1542C59.6297 29.1613 59.7357 27.4164 59.7357 27.4164Z" fill="#0D0F2C"/>
<path d="M54.6916 28.1216C54.6916 28.1216 54.1759 29.1601 53.2293 29.1601C52.4452 29.1601 51.4844 28.4678 51.4491 27.4717C51.4491 27.4647 51.442 26.0236 51.442 24.8226H51.1736C51.0323 24.8226 50.7921 24.7379 50.7921 24.3776C50.7921 24.0173 51.0676 23.9396 51.2018 23.9396H51.435C51.435 23.5228 51.435 23.2332 51.435 23.212C51.4632 22.6963 51.9577 22.2583 52.4593 22.2866C52.9326 22.3078 53.3988 22.7175 53.42 23.212V23.2191V23.9396H54.2536C54.3666 23.9396 54.6351 24.0173 54.6351 24.3847C54.6351 24.752 54.3666 24.8226 54.2254 24.8226H53.42V27.0267C53.413 27.7472 54.0276 28.1216 54.6916 28.1216Z" fill="#0D0F2C"/>
<path d="M81.1119 28.1216C81.1119 28.1216 80.5962 29.1601 79.6496 29.1601C78.8654 29.1601 77.9047 28.4678 77.8694 27.4717C77.8694 27.4647 77.8623 26.0236 77.8623 24.8226H77.5939C77.4526 24.8226 77.2124 24.7379 77.2124 24.3776C77.2124 24.0173 77.4879 23.9396 77.6221 23.9396H77.8553C77.8553 23.5228 77.8553 23.2332 77.8553 23.212C77.8835 22.6963 78.378 22.2583 78.8796 22.2866C79.3529 22.3078 79.8191 22.7175 79.8403 23.212V23.2191V23.9396H80.6739C80.7869 23.9396 81.0554 24.0173 81.0554 24.3847C81.0554 24.752 80.7869 24.8226 80.6456 24.8226H79.8403V27.0267C79.8332 27.7472 80.4549 28.1216 81.1119 28.1216Z" fill="#0D0F2C"/>
</svg>
