<svg width="75" height="36" viewBox="0 0 75 36" fill="none" xmlns="http://www.w3.org/2000/svg">
<mask id="mask0_270_15" style="mask-type:luminance" maskUnits="userSpaceOnUse" x="0" y="0" width="75" height="36">
<path d="M74.5714 0H0V36H74.5714V0Z" fill="white"/>
</mask>
<g mask="url(#mask0_270_15)">
<mask id="mask1_270_15" style="mask-type:luminance" maskUnits="userSpaceOnUse" x="0" y="0" width="75" height="36">
<path d="M74.5714 0H0V36H74.5714V0Z" fill="white"/>
</mask>
<g mask="url(#mask1_270_15)">
<mask id="mask2_270_15" style="mask-type:luminance" maskUnits="userSpaceOnUse" x="0" y="0" width="75" height="35">
<path d="M74.5717 0H0.487793V34.9452H74.5717V0Z" fill="white"/>
</mask>
<g mask="url(#mask2_270_15)">
<path d="M0.487793 -1.55127V35.0955H37.9311L74.5716 -1.55127H0.487793ZM10.5632 5.26444H10.5786C13.2425 5.26748 16.4899 6.02067 18.839 7.21845L16.3078 11.6326C13.7303 10.3856 12.4338 10.2682 10.9676 10.191C8.78208 10.0737 7.68318 10.8547 7.66777 11.6974C7.64617 12.7222 9.73282 13.6512 11.6961 14.2841C14.6717 15.2287 18.4562 16.4911 19.0335 20.1491L24.4725 5.77373H30.7882L37.1593 22.9859L37.1377 5.77688H44.4535C51.4204 5.77688 54.6956 8.13521 54.6956 13.5525C54.6956 18.4143 51.3309 21.3128 45.6326 21.3128H43.2775L43.2466 27.7766L32.1709 27.7674L31.3993 24.9645C30.2572 25.3411 28.9699 25.548 27.6025 25.548C26.1949 25.548 24.8707 25.3287 23.7039 24.9306L22.5988 27.7674L16.4251 27.7859L16.7029 26.3598C16.6134 26.4369 16.527 26.5142 16.4343 26.5882C14.7829 27.9155 12.7054 28.5298 10.1465 28.5761L9.48903 28.5822C6.69498 28.6107 3.94424 27.8913 1.52189 26.4986L3.77527 22.029C6.21382 23.4705 7.74494 23.7946 9.81314 23.7514C10.8843 23.7298 11.659 23.5353 12.1621 23.0137C12.4584 22.7068 12.63 22.3009 12.6438 21.8745C12.6654 20.7139 11.0077 20.1677 8.98582 19.541C7.34669 19.0348 5.48223 18.3402 4.02839 17.2722C2.30287 16.0065 1.48173 14.42 1.52189 12.1789C1.53235 10.5894 2.15864 9.06582 3.26902 7.92833C4.87113 6.27075 7.45784 5.26444 10.5632 5.26444ZM43.2744 10.4194V16.2968H44.8825C47.0248 16.2968 48.7318 15.5868 48.7349 13.3211C48.7349 11.1326 47.0248 10.4194 44.8825 10.4194H43.2744ZM27.5717 12.7871L25.2627 20.078C25.951 20.3404 26.7474 20.4887 27.5995 20.4887C28.4267 20.4887 29.2045 20.3435 29.8898 20.0997L27.618 12.7839L27.5717 12.7871Z" fill="#0D0F2C"/>
</g>
</g>
</g>
</svg>
