<svg width="450" height="83" viewBox="0 0 450 83" fill="none" xmlns="http://www.w3.org/2000/svg">
<g clip-path="url(#clip0_15_249)">
<path d="M59.5 38.2C59.5 51.9 51.3 66.7 29.9 66.7C14.3 66.7 0 58.2 0 38.2C0 21.7 10.7 8.9 31.9 10C54.5 11.3 59.5 28.3 59.5 38.2ZM19.3 27.8C17.3 30.8 16.5 34.5 16.5 38.2C16.5 46.5 20.8 54.1 29.8 54.1C38.7 54.1 43 47.1 43 38.9C43 33 41.5 28.5 38.4 25.7C35.1 22.7 31.2 22.6 28.8 22.7C24.3 23 21.5 24.5 19.3 27.8ZM204.5 16.1C206.2 14.4 207.1 13.1 210.1 11.8C212.7 10.7 216.2 9.9 220.3 9.9C223.6 9.9 227.3 10.5 230.1 11.9C235.8 14.9 237.5 19.7 237.5 28.2V65.3H221V34.8C221 30 220.8 28.1 220.3 26.6C219 23.6 216.2 22.5 212.9 22.5C204.4 22.5 204.4 29.2 204.4 36V65.3H188V11.3H204.5V16.1ZM180.3 51.3C178.8 54.4 174 66.7 152.7 66.7C136.2 66.7 124.7 56.9 124.7 39.1C124.7 26.1 131.4 10 153.2 10C156.5 10 166 9.6 173.2 17C180.4 24.6 180.8 35.2 181 41.3H141.2C141.2 48 145.1 54.8 154 54.8C162.9 54.8 166 49.1 168.1 45.4L180.3 51.3ZM164 31.3C163.6 29.1 163.3 25.9 160.9 23.7C158.9 21.7 155.7 20.7 152.9 20.7C149 20.7 146.2 22.6 144.6 24.2C142.4 26.6 141.8 29 141.3 31.4L164 31.3ZM407.6 22.6H418.3V11.5H407.6V0H391.3V11.3H388.7L381.3 22.4H391.3V48.2C391.3 53.4 391.5 57.3 393.7 60.4C397.2 65.4 403.3 65.8 409.1 65.8C412.1 65.8 414.3 65.4 417.6 64.9V52.4L411.9 52.6C407.5 52.6 407.5 49.8 407.6 46.5V22.6ZM245.3 0H261.6V11.3H278.5L271 22.4H261.4V46.5C261.2 49.8 261.2 52.6 265.7 52.6L271.4 52.4V64.8C267.9 65.4 265.8 65.7 262.9 65.7C257.3 65.7 251 65.3 247.5 60.3C245.3 57.2 245.1 53.3 245.1 48.1V0H245.3ZM433.3 22.6H431.3V13H427.6V11.3H436.9V13H433.2V22.6H433.3ZM449.1 22.6H447.1V15.7L447.3 13.5L446.7 15.4L444.3 22.8H442.4L440 15.4L439.4 13.5L439.6 15.7V22.6H437.7V11.5H440.5L443.3 20.4L446.1 11.5H448.9V22.6H449.1Z" fill="#0D0F2C"/>
<path d="M329.6 51.2999L326.5 55.9C323.5 60 318.2 66.5 302.4 66.5C285.9 66.5 275 56.7 275 38.9C275 25.9 281.7 9.79995 303.5 9.79995C306.8 9.79995 316.3 9.39995 323.5 16.7999C330.7 24.3999 331.1 34.9999 331.3 41.0999H291.7C291.5 47.7999 295 54.5999 303.7 54.5999C312.6 54.5999 315.2 48.9 317.2 45.2L329.6 51.2999ZM314.4 31.2999C314 29.0999 313.7 25.9 311.3 23.7C309.3 21.7 306.1 20.7 303.3 20.7C299.4 20.7 296.6 22.6 295 24.2C292.8 26.6 292.2 28.9999 291.7 31.4L314.4 31.2999Z" fill="#0D0F2C"/>
<path d="M385.4 65.4L365 37.1L381.9 11.5H363.4L355.4 23.5L346.7 11.5H328.2L346.5 37.1L327.6 65.4H346.1L355.9 50.4L366.6 65.4H385.4ZM81.9004 16.1C83.4004 13.7 88.4004 10 96.4004 10C109.9 10 119.6 20 119.6 38C119.6 49.1 115.5 66.5 95.7004 66.5C88.7004 66.5 83.1004 62.6 81.8004 60.4V83H65.4004V11.3H81.9004V16.1ZM93.0004 22.4C90.0004 22.4 86.9004 23.5 84.7004 26.5C82.3004 29.3 81.4004 33.5 81.4004 38.4C81.4004 44.7 83.3004 48.6 85.3004 50.8C87.2004 52.8 89.9004 54.1 92.7004 54.1C100.7 54.1 104.2 45.9 104.2 38C104.2 31.3 102.2 24.3 95.5004 22.8C94.5004 22.6 93.7004 22.4 93.0004 22.4Z" fill="#0D0F2C"/>
</g>
<defs>
<clipPath id="clip0_15_249">
<rect width="449.1" height="83" fill="white"/>
</clipPath>
</defs>
</svg>
